<svg version="1" xmlns="http://www.w3.org/2000/svg" width="666.667" height="666.667" viewBox="0 0 500.000000 500.000000"><path d="M12.5 1.9C7.6 4.2 3.6 8.3 1.6 13.2.2 16.5 0 41.5 0 250.2c0 225 .1 233.4 1.9 237.3 2.3 4.9 6.4 8.9 11.3 10.9 3.3 1.4 28.3 1.6 237 1.6 225 0 233.4-.1 237.3-1.9 4.9-2.3 8.9-6.4 10.9-11.3 1.4-3.3 1.6-28.4 1.6-236.8s-.2-233.5-1.6-236.8c-2-4.9-6-9-10.9-11.3C483.6.1 475.2 0 250 0S16.4.1 12.5 1.9zM386 140.3c5.7 3.8 7.4 7.9 7.8 18.8l.4 9.6 10.5.5c11.4.5 13.8 1.5 18.1 7.8l2.2 3.3v99.6c0 112.7.6 104.3-8 108.8l-4.4 2.3-115.2-.2c-114.6-.3-115.3-.3-118-2.4-6-4.4-6.9-6.7-7.2-18.5l-.4-10.9h-9.4c-11.2 0-15-1.3-19-6.6l-2.9-3.7V248.4c0-100.2 0-100.3 2.1-103.1 1.1-1.5 3.6-3.8 5.4-5.1l3.3-2.2h231.4l3.3 2.3z"/><path d="M155.5 154.2c-.3.7-.4 43.6-.3 95.3l.3 94 8.2.3 8.3.3.2-82.3.3-82.3 2.3-3.3c5.2-7.2-2.2-6.7 106-7l97.2-.2v-16H267c-87.9 0-111.2.3-111.5 1.2z"/><path d="M187 280.5V376h223V185H187v95.5zm177.7-76.6c14.3 7.3 17.1 26 5.7 37.5-4 4-7.8 5.7-14 6.3-18.1 1.9-31-17.1-22.8-33.5 5.7-11.6 19.7-16.2 31.1-10.3zM291 273l31.2 39h16.5l25.9-22.3c14.3-12.2 26.8-22.8 27.7-23.6 1.6-1.3 1.7 1.7 1.7 45.8V359H204v-31.5l27.2-46.8c15-25.7 27.6-46.7 27.9-46.7.4 0 14.7 17.5 31.9 39z"/></svg>